<svg id="Layer_1" data-name="Layer 1" xmlns="http://www.w3.org/2000/svg" viewBox="0 0 478.48 786.91"><defs><style>.cls-1{fill:#f5e0cd;}.cls-2{fill:#f0beb4;}.cls-3{fill:#543e36;}.cls-4{fill:#72594b;}.cls-5{fill:#f0d0b4;}.cls-6{fill:#db9c94;}.cls-7{fill:#ff675d;}.cls-8{fill:#ff9350;}.cls-9{fill:#ff9f37;}.cls-10{fill:#ff6d2d;}.cls-11{fill:#8c715d;}.cls-12{fill:#ffad5a;}.cls-13{fill:#b78c30;}.cls-14{fill:#d07e3d;}.cls-15{fill:#ff8c99;}.cls-16{fill:#ffb607;}.cls-17{fill:#bf5b5a;}.cls-18{fill:#ecc19c;}.cls-19{fill:#e4b69d;}.cls-20{fill:#f8b0c9;}.cls-21{fill:#f9b7a9;}.cls-22{fill:#cb8c84;}.cls-23{fill:#ceab97;}.cls-24{fill:#fc7088;}.cls-25{fill:#f7c1cb;}.cls-26{fill:#ff8136;}.cls-27{fill:#ec697c;}.cls-28{fill:#b5917c;}.cls-29{fill:#f1dbcb;}.cls-30{fill:#ff87a0;}.cls-31{fill:#deced0;}.cls-32{fill:#cea28b;}.cls-33{fill:#e0ada6;}.cls-34{fill:#e81a4b;}.cls-35{fill:#cc4885;}.cls-36{fill:#5a5d59;}.cls-37{fill:#dfb28b;}.cls-38{fill:#fcd6d9;}.cls-39{fill:#f59db2;}.cls-40{fill:#ac8457;}.cls-41{fill:#eb6083;}.cls-42{fill:#ffb2e0;}.cls-43{fill:#9c7761;}.cls-44{fill:#f7505e;}.cls-45{fill:#f381a3;}.cls-46{fill:#e04264;}.cls-47{fill:#7d7048;}.cls-48{fill:#b08874;}.cls-49{fill:#ffc03c;}.cls-50{fill:#88a1c4;}.cls-51{fill:#946955;}.cls-52{fill:#55678b;}.cls-53{fill:#aec2db;}.cls-54{fill:#e0e6ed;}.cls-55{fill:#ff7332;}.cls-56{fill:#405765;}.cls-57{fill:#ffcc50;}.cls-58{fill:#b19177;}.cls-59{fill:#adb7c0;}.cls-60{fill:#9aa4af;}</style></defs><title>BOWIE LOW POLY for website</title><polygon class="cls-1" points="232.88 519.77 221.35 535.48 206.25 519.77 220.69 525.71 232.88 519.77"/><path class="cls-2" d="M385.64,558.17l-13.31,13.31-8.54-3.91.69-1.51,2.87-2.12h5l.76-5-4.83-2-8.18,2-4.2,5-9.76,12.25h-8.44l-.5-.52-11.32-11.73-4.25-7-9.49-2,1.44,4.07,5.85,2.55,3.65,7.93-3,5.81-.67-.34-18.32-10.94V531.12l13.32-22.3,1.78,17.89-5.94,8.14,1.87,9.75,5.23,4.16-1.16-12.89,8.27-10.52-1.4-30,17-25.95,20.06-25.44,17.17,4.75-11.45,4-6.53,13.44.81,43.3,12.25,15.94,13.06,32.57.3.17ZM373.09,544l-2.29-12.89-13.23-16.29v8.82l7.76,9.84,5.47,15.27Zm-30.78,22.66L353.84,551l-12.19,5.94L327.21,551Z" transform="translate(-120.96 -31.19)"/><polygon class="cls-3" points="478.48 749.26 459.48 760.45 434.38 724.15 478.48 749.26"/><polygon class="cls-4" points="434.38 724.15 459.48 760.45 389.26 735.69 434.38 724.15"/><polygon class="cls-5" points="459.48 760.45 389.26 780.46 389.26 735.69 459.48 760.45"/><polygon class="cls-6" points="448.29 372.97 448.29 388.24 441.67 367.12 448.29 372.97"/><polygon class="cls-7" points="437.35 146.54 448.29 193.86 366.53 132.04 437.35 146.54"/><polygon class="cls-8" points="448.29 193.86 441.67 241.18 366.53 132.04 448.29 193.86"/><polygon class="cls-6" points="441.67 367.12 448.29 388.24 442.69 411.22 441.67 367.12"/><polygon class="cls-6" points="441.67 367.12 442.69 411.22 427.93 376.79 441.67 367.12"/><polygon class="cls-6" points="427.93 376.79 442.69 411.22 432.26 430.05 427.93 376.79"/><polygon class="cls-9" points="366.53 132.04 441.67 241.18 366.53 245.67 366.53 132.04"/><polygon class="cls-8" points="441.67 241.18 434.29 286.98 366.53 284.52 441.67 241.18"/><polygon class="cls-10" points="434.29 286.98 441.67 367.12 427.93 376.79 434.29 286.98"/><polygon class="cls-7" points="441.67 241.18 366.53 284.52 366.53 245.67 441.67 241.18"/><polygon class="cls-8" points="422.85 112.96 437.35 146.54 366.53 132.04 422.85 112.96"/><polygon class="cls-11" points="434.38 724.15 389.26 735.69 389.26 691.76 434.38 724.15"/><polygon class="cls-8" points="434.29 286.98 427.93 376.79 391.3 374.41 434.29 286.98"/><polygon class="cls-8" points="434.29 286.98 391.3 374.41 381.8 332.69 434.29 286.98"/><polygon class="cls-10" points="434.29 286.98 381.8 332.69 366.53 284.52 434.29 286.98"/><polygon class="cls-3" points="427.93 376.79 432.26 430.05 412.41 447.01 427.93 376.79"/><polygon class="cls-6" points="432.26 430.05 422.85 451.08 412.41 447.01 432.26 430.05"/><polygon class="cls-12" points="427.93 376.79 412.41 447.01 395.37 447.01 427.93 376.79"/><polygon class="cls-12" points="427.93 376.79 395.37 447.01 393.33 424.62 389.26 406.64 427.93 376.79"/><polygon class="cls-12" points="427.93 376.79 389.26 406.64 391.3 374.41 427.93 376.79"/><polygon class="cls-8" points="413.69 519.41 424.37 575.87 410.47 548.19 413.69 519.41"/><polygon class="cls-7" points="410.47 548.19 424.37 575.87 407.26 576.98 410.47 548.19"/><polygon class="cls-13" points="424.37 575.87 422.85 637.82 400.46 637.82 424.37 575.87"/><polygon class="cls-10" points="424.37 575.87 400.46 637.82 407.26 576.98 424.37 575.87"/><polygon class="cls-8" points="393.33 81.67 422.85 112.96 366.53 132.04 393.33 81.67"/><polygon class="cls-6" points="422.85 451.08 413.69 476.52 412.41 447.01 422.85 451.08"/><polygon class="cls-8" points="413.69 476.52 413.69 519.41 401.98 495.86 413.69 476.52"/><polygon class="cls-6" points="412.41 447.01 413.69 476.52 401.98 495.86 412.41 447.01"/><polygon class="cls-8" points="401.98 495.86 413.69 519.41 387.23 501.88 401.98 495.86"/><polygon class="cls-8" points="413.69 519.41 410.47 548.19 387.23 501.88 413.69 519.41"/><polygon class="cls-6" points="412.41 447.01 401.98 495.86 395.3 484.29 412.41 447.01"/><polygon class="cls-6" points="412.41 447.01 395.3 484.29 385.53 467.36 412.41 447.01"/><polygon class="cls-6" points="412.41 447.01 385.53 467.36 395.37 447.01 412.41 447.01"/><polygon class="cls-7" points="387.23 501.88 410.47 548.19 407.26 576.98 394.62 577.8 387.23 501.88"/><polygon class="cls-10" points="407.26 576.98 400.46 637.82 394.62 577.8 407.26 576.98"/><polygon class="cls-11" points="395.3 484.29 401.98 495.86 387.23 501.88 395.3 484.29"/><polygon class="cls-8" points="394.62 577.8 400.46 637.82 367.72 580.32 369.25 579.45 394.62 577.8"/><polygon class="cls-14" points="367.72 580.32 400.46 637.82 385.53 661.74 365.18 575.87 367.72 580.32"/><polygon class="cls-6" points="393.33 424.62 395.37 447.01 381.46 423.6 393.33 424.62"/><polygon class="cls-15" points="381.46 423.6 395.37 447.01 385.53 467.36 381.46 423.6"/><polygon class="cls-6" points="385.53 467.36 395.3 484.29 387.23 501.88 385.53 467.36"/><polygon class="cls-10" points="387.23 501.88 394.62 577.8 369.25 579.45 387.23 501.88"/><polygon class="cls-7" points="393.33 81.67 366.53 132.04 289.74 43.5 393.33 81.67"/><polygon class="cls-6" points="389.26 406.64 393.33 424.62 381.46 423.6 389.26 406.64"/><polygon class="cls-16" points="393.33 81.67 289.74 43.5 315.88 25.95 393.33 81.67"/><polygon class="cls-11" points="381.8 332.69 391.3 374.41 337.36 384.25 381.8 332.69"/><polygon class="cls-11" points="391.3 374.41 389.26 406.64 360.43 406.64 359.75 405.96 391.3 374.41"/><polygon class="cls-17" points="391.3 374.41 359.75 405.96 337.36 384.25 391.3 374.41"/><polygon class="cls-5" points="389.26 735.69 389.26 780.46 329.9 745.18 389.26 735.69"/><polygon class="cls-5" points="389.26 691.76 389.26 735.69 326.85 706.51 389.26 691.76"/><polygon class="cls-11" points="389.26 406.64 381.46 423.6 360.43 406.64 389.26 406.64"/><polygon class="cls-5" points="369.25 664.11 389.26 691.76 326.85 706.51 369.25 664.11"/><polygon class="cls-18" points="389.26 735.69 329.9 745.18 326.85 706.51 389.26 735.69"/><polygon class="cls-19" points="389.26 780.46 341.77 770.29 266.12 755.7 329.9 745.18 389.26 780.46"/><polygon class="cls-11" points="385.53 467.36 387.23 501.88 374 502.3 385.53 467.36"/><polygon class="cls-8" points="387.23 501.88 369.25 579.45 367.72 580.32 365.18 575.87 369.25 545.38 374 502.3 387.23 501.88"/><polygon class="cls-20" points="381.46 423.6 385.53 467.36 369.89 429.53 381.46 423.6"/><polygon class="cls-20" points="369.89 429.53 385.53 467.36 352.97 438.19 369.89 429.53"/><polygon class="cls-11" points="385.53 467.36 374 502.3 351.61 473.81 385.53 467.36"/><polygon class="cls-13" points="365.18 575.87 385.53 661.74 369.25 664.11 365.86 615.6 365.18 575.87"/><polygon class="cls-21" points="385.53 467.36 351.61 473.81 352.97 438.19 385.53 467.36"/><polygon class="cls-11" points="366.53 284.52 381.8 332.69 339.74 317.76 366.53 284.52"/><polygon class="cls-22" points="381.8 332.69 337.36 384.25 339.11 335.43 381.8 332.69"/><polygon class="cls-23" points="381.8 332.69 339.11 335.43 339.74 317.76 381.8 332.69"/><polygon class="cls-24" points="381.46 423.6 369.89 429.53 360.43 406.64 381.46 423.6"/><polygon class="cls-11" points="351.61 473.81 374 502.3 341.77 553.52 351.61 473.81"/><polygon class="cls-11" points="374 502.3 369.25 545.38 341.77 553.52 374 502.3"/><polygon class="cls-24" points="360.43 406.64 369.89 429.53 352.97 438.19 360.43 406.64"/><polygon class="cls-25" points="369.25 545.38 365.18 575.87 341.77 553.52 369.25 545.38"/><polygon class="cls-11" points="365.86 615.6 369.25 664.11 334.01 644.94 365.86 615.6"/><polygon class="cls-3" points="369.25 664.11 326.85 706.51 334 644.94 334.01 644.94 369.25 664.11"/><polygon class="cls-16" points="366.53 245.67 366.53 284.52 337.36 266.2 309.63 249.07 366.53 245.67"/><polygon class="cls-10" points="366.53 132.04 366.53 245.67 309.63 249.07 366.53 132.04"/><polygon class="cls-7" points="289.74 43.5 366.53 132.04 299.89 148.35 289.74 43.5"/><polygon class="cls-26" points="366.53 132.04 309.63 249.07 299.89 148.35 366.53 132.04"/><polygon class="cls-22" points="366.53 284.52 339.74 317.76 338.51 291.01 366.53 284.52"/><polygon class="cls-22" points="366.53 284.52 338.51 291.01 338.5 291.01 337.36 266.2 366.53 284.52"/><polygon class="cls-23" points="365.18 575.87 365.86 615.6 355.34 593.55 365.18 575.87"/><polygon class="cls-23" points="355.34 593.55 365.86 615.6 337.02 618.99 355.34 593.55"/><polygon class="cls-11" points="365.86 615.6 334.01 644.94 337.02 618.99 365.86 615.6"/><polygon class="cls-27" points="365.18 575.87 355.34 593.55 341.77 553.52 365.18 575.87"/><polygon class="cls-28" points="360.43 406.64 352.97 438.19 337.36 384.25 359.75 405.96 360.43 406.64"/><polygon class="cls-2" points="313.06 577.36 341.77 553.52 355.34 593.55 285.8 600 313.06 577.36"/><polygon class="cls-29" points="355.34 593.55 337.02 618.99 285.8 600 355.34 593.55"/><polygon class="cls-3" points="337.36 384.25 352.97 438.19 336.34 431.74 337.36 384.25"/><polygon class="cls-18" points="352.97 438.19 351.61 473.81 336.34 431.74 352.97 438.19"/><polygon class="cls-1" points="336.34 431.74 351.61 473.81 307.85 445.99 336.34 431.74"/><polygon class="cls-30" points="351.61 473.81 341.77 553.52 329.9 518.24 351.61 473.81"/><polygon class="cls-20" points="351.61 473.81 329.9 518.24 296.57 496.53 351.61 473.81"/><polygon class="cls-15" points="351.61 473.81 296.57 496.53 307.85 445.99 351.61 473.81"/><polygon class="cls-15" points="329.9 518.24 341.77 553.52 300.76 547.52 329.9 518.24"/><polygon class="cls-31" points="341.77 553.52 313.06 577.36 251.37 540.29 300.76 547.52 341.77 553.52"/><polygon class="cls-32" points="341.77 770.29 298.69 786.91 266.12 755.7 341.77 770.29"/><polygon class="cls-20" points="338.51 291.01 339.74 317.76 318.45 336.76 338.5 291.01 338.51 291.01"/><polygon class="cls-33" points="339.74 317.76 339.11 335.43 318.45 336.76 339.74 317.76"/><polygon class="cls-20" points="339.11 335.43 337.36 384.25 318.45 336.76 339.11 335.43"/><polygon class="cls-2" points="337.36 266.2 338.5 291.01 302.08 299.45 337.36 266.2"/><polygon class="cls-1" points="338.5 291.01 318.45 336.76 298.35 328.28 338.5 291.01"/><polygon class="cls-2" points="338.5 291.01 298.35 328.28 302.08 299.45 338.5 291.01"/><polygon class="cls-20" points="318.45 336.76 337.36 384.25 313.08 378.65 315.88 356.8 318.45 336.76"/><polygon class="cls-3" points="337.36 384.25 336.34 431.74 329.9 411.22 337.36 384.25"/><polygon class="cls-3" points="337.36 384.25 329.9 411.22 318.45 404.11 337.36 384.25"/><polygon class="cls-11" points="337.36 384.25 318.45 404.11 313.08 378.65 337.36 384.25"/><polygon class="cls-34" points="337.36 266.2 302.08 299.45 309.63 249.07 337.36 266.2"/><polygon class="cls-4" points="337.02 618.99 334.01 644.94 334 644.94 326.85 706.51 310.9 650.54 337.02 618.99"/><polygon class="cls-29" points="337.02 618.99 310.9 650.54 285.8 600 337.02 618.99"/><polygon class="cls-35" points="329.9 411.22 336.34 431.74 320.57 431.74 329.9 411.22"/><polygon class="cls-36" points="336.34 431.74 307.85 445.99 282.23 440.22 273.25 430.39 261.04 430.05 273.25 426.65 295.13 433.01 307.34 434.54 320.57 431.74 336.34 431.74"/><polygon class="cls-35" points="329.9 411.22 320.57 431.74 318.45 404.11 329.9 411.22"/><polygon class="cls-30" points="329.9 518.24 300.76 547.52 296.57 496.53 329.9 518.24"/><polygon class="cls-37" points="326.85 706.51 329.9 745.18 280.03 719.23 326.85 706.51"/><polygon class="cls-5" points="329.9 745.18 266.12 755.7 280.03 719.23 329.9 745.18"/><polygon class="cls-4" points="310.9 650.54 326.85 706.51 290.55 678.7 310.9 650.54"/><polygon class="cls-3" points="326.85 706.51 280.03 719.23 290.55 678.7 326.85 706.51"/><polygon class="cls-35" points="318.45 404.11 320.57 431.74 307.34 434.54 318.45 404.11"/><polygon class="cls-33" points="318.45 336.76 315.88 356.8 298.35 328.28 318.45 336.76"/><polygon class="cls-11" points="313.08 378.65 318.45 404.11 296.57 400.53 313.08 378.65"/><polygon class="cls-35" points="318.45 404.11 307.34 434.54 295.13 433.01 318.45 404.11"/><polygon class="cls-35" points="318.45 404.11 295.13 433.01 296.57 400.53 318.45 404.11"/><polygon class="cls-20" points="315.88 356.8 313.08 378.65 278.34 380.18 294.54 370.09 294.57 370.08 294.57 370.07 315.88 356.8"/><polygon class="cls-1" points="298.35 328.28 315.88 356.8 273.25 347.62 298.35 328.28"/><polygon class="cls-16" points="315.88 25.95 289.74 43.5 285.8 0 315.88 25.95"/><polygon class="cls-25" points="315.88 356.8 294.57 370.07 273.25 347.62 315.88 356.8"/><polygon class="cls-3" points="313.08 378.65 296.57 400.53 278.34 380.18 313.08 378.65"/><polygon class="cls-1" points="251.37 540.29 313.06 577.36 285.8 600 281.39 592.35 251.37 540.29"/><polygon class="cls-5" points="285.8 600 310.9 650.54 264.77 622.05 277.05 609.17 285.8 600"/><polygon class="cls-38" points="310.9 650.54 290.55 678.7 225.16 632.73 252.47 638.4 310.9 650.54"/><polygon class="cls-18" points="310.9 650.54 252.47 638.4 264.77 622.05 310.9 650.54"/><polygon class="cls-16" points="299.89 148.35 309.63 249.07 280.73 153.04 299.89 148.35"/><polygon class="cls-26" points="280.73 153.04 309.63 249.07 248.06 161.04 280.73 153.04"/><polygon class="cls-7" points="248.06 161.04 309.63 249.07 281.64 267.39 248.06 161.04"/><polygon class="cls-39" points="309.63 249.07 302.08 299.45 281.64 267.39 309.63 249.07"/><polygon class="cls-1" points="307.85 445.99 296.57 496.53 282.23 440.22 307.85 445.99"/><polygon class="cls-34" points="281.64 267.39 302.08 299.45 275.29 284.12 281.64 267.39"/><polygon class="cls-2" points="302.08 299.45 298.35 328.28 273.25 347.62 302.08 299.45"/><polygon class="cls-2" points="302.08 299.45 273.25 347.62 249.5 352.03 302.08 299.45"/><polygon class="cls-34" points="302.08 299.45 249.5 352.03 275.29 284.12 302.08 299.45"/><polygon class="cls-20" points="296.57 496.53 300.76 547.52 263.04 506.71 296.57 496.53"/><polygon class="cls-18" points="263.04 506.71 300.76 547.52 264.73 526.9 264.43 526.73 251.37 494.16 263.04 506.71"/><polygon class="cls-18" points="300.76 547.52 251.37 540.29 264.68 526.98 264.73 526.9 300.76 547.52"/><polygon class="cls-8" points="299.89 148.35 280.73 153.04 257.64 76.32 289.74 43.5 299.89 148.35"/><polygon class="cls-33" points="298.69 786.91 242.68 784.87 266.12 755.7 298.69 786.91"/><polygon class="cls-11" points="278.34 380.18 296.57 400.53 270.2 406.64 278.34 380.18"/><polygon class="cls-35" points="296.57 400.53 295.13 433.01 273.25 426.65 296.57 400.53"/><polygon class="cls-35" points="296.57 400.53 273.25 426.65 270.2 406.64 296.57 400.53"/><polygon class="cls-1" points="282.23 440.22 296.57 496.53 266.61 467.52 282.23 440.22"/><polygon class="cls-21" points="296.57 496.53 263.04 506.71 251.37 494.16 296.57 496.53"/><polygon class="cls-15" points="296.57 496.53 251.37 494.16 266.61 467.52 296.57 496.53"/><polygon class="cls-33" points="294.57 370.07 294.57 370.08 294.54 370.09 257.64 384.25 273.25 347.62 294.57 370.07"/><polygon class="cls-34" points="294.54 370.09 278.34 380.18 253.23 398.16 257.64 384.25 294.54 370.09"/><polygon class="cls-3" points="290.55 678.7 280.03 719.23 272.23 691.76 290.55 678.7"/><polygon class="cls-1" points="290.55 678.7 272.23 691.76 225.16 632.73 290.55 678.7"/><polygon class="cls-16" points="285.8 0 289.74 43.5 248.06 16.53 285.8 0"/><polygon class="cls-7" points="289.74 43.5 257.64 76.32 248.06 16.53 289.74 43.5"/><polygon class="cls-18" points="281.39 592.35 285.8 600 277.05 609.17 281.39 592.35"/><polygon class="cls-40" points="273.25 430.39 282.23 440.22 251.37 452.77 273.25 430.39"/><polygon class="cls-40" points="282.23 440.22 266.61 467.52 251.37 452.77 282.23 440.22"/><polygon class="cls-10" points="248.06 161.04 281.64 267.39 249.33 269.26 248.06 161.04"/><polygon class="cls-39" points="281.64 267.39 275.29 284.12 249.33 269.26 281.64 267.39"/><polygon class="cls-41" points="281.39 592.35 277.05 609.17 266.12 600 281.39 592.35"/><polygon class="cls-6" points="251.37 540.29 281.39 592.35 257.86 586.43 251.37 540.29"/><polygon class="cls-42" points="281.39 592.35 266.12 600 257.86 586.43 281.39 592.35"/><polygon class="cls-7" points="257.64 76.32 280.73 153.04 248.06 161.04 257.64 76.32"/><polygon class="cls-3" points="272.23 691.76 280.03 719.23 251.88 696.68 272.23 691.76"/><polygon class="cls-5" points="280.03 719.23 266.12 755.7 209.14 741.11 280.03 719.23"/><polygon class="cls-4" points="280.03 719.23 209.14 741.11 251.88 696.68 280.03 719.23"/><polygon class="cls-3" points="278.34 380.18 270.2 406.64 253.23 398.16 278.34 380.18"/><polygon class="cls-41" points="277.05 609.17 264.77 622.05 266.12 600 277.05 609.17"/><polygon class="cls-39" points="249.33 269.26 275.29 284.12 249.5 352.03 249.33 269.26"/><polygon class="cls-1" points="273.25 347.62 257.64 384.25 249.5 352.03 273.25 347.62"/><polygon class="cls-35" points="270.2 406.64 273.25 426.65 261.04 430.05 270.2 406.64"/><polygon class="cls-40" points="273.25 430.39 251.37 452.77 261.04 430.05 273.25 430.39"/><polygon class="cls-1" points="225.16 632.73 272.23 691.76 251.88 696.68 227.45 694.98 209.14 696.34 185.73 691.76 225.16 632.73"/><polygon class="cls-43" points="270.2 406.64 261.04 430.05 256.29 417.5 270.2 406.64"/><polygon class="cls-3" points="270.2 406.64 256.29 417.5 253.23 398.16 270.2 406.64"/><polygon class="cls-40" points="266.61 467.52 251.37 494.16 251.37 452.77 266.61 467.52"/><polygon class="cls-42" points="257.86 586.43 266.12 600 251.37 598.81 253.2 595.32 257.86 586.43"/><polygon class="cls-41" points="266.12 600 264.77 622.05 251.37 598.81 266.12 600"/><polygon class="cls-2" points="266.12 755.7 242.68 784.87 209.14 741.11 266.12 755.7"/><polygon class="cls-44" points="251.37 598.81 264.77 622.05 245.09 630.53 251.37 598.81"/><polygon class="cls-1" points="264.77 622.05 252.47 638.4 245.09 630.53 264.77 622.05"/><polygon class="cls-43" points="256.29 417.5 261.04 430.05 251.37 452.77 256.29 417.5"/><polygon class="cls-1" points="251.37 540.29 257.86 586.43 238.31 582.7 251.37 540.29"/><polygon class="cls-44" points="257.86 586.43 253.2 595.32 246.39 594.06 257.86 586.43"/><polygon class="cls-45" points="257.86 586.43 246.39 594.06 238.31 582.7 257.86 586.43"/><polygon class="cls-16" points="248.06 16.53 257.64 76.32 209.63 0 248.06 16.53"/><polygon class="cls-16" points="209.63 0 257.64 76.32 172.29 16.53 209.63 0"/><polygon class="cls-10" points="257.64 76.32 248.06 161.04 205.27 141.18 257.64 76.32"/><polygon class="cls-7" points="257.64 76.32 205.27 141.18 155.96 118.3 257.64 76.32"/><polygon class="cls-33" points="249.5 352.03 257.64 384.25 236.27 396.46 249.5 352.03"/><polygon class="cls-46" points="257.64 384.25 253.23 398.16 239.12 412.75 257.64 384.25"/><polygon class="cls-34" points="257.64 384.25 239.12 412.75 236.27 396.46 257.64 384.25"/><polygon class="cls-9" points="257.64 76.32 155.96 118.3 107.89 59.53 257.64 76.32"/><polygon class="cls-7" points="257.64 76.32 107.89 59.53 172.29 16.53 257.64 76.32"/><polygon class="cls-3" points="253.23 398.16 256.29 417.5 239.12 412.75 253.23 398.16"/><polygon class="cls-6" points="256.29 417.5 251.37 452.77 251.37 494.16 239.12 478.22 238.31 434.92 244.84 421.48 256.29 417.5"/><polygon class="cls-47" points="253.2 595.32 251.37 598.81 232.03 602.54 214.22 602.54 186.58 597.24 186.96 596.84 196.75 594.23 209.14 596.44 219.31 597.24 231.86 597.01 246.39 594.06 253.2 595.32"/><polygon class="cls-1" points="245.09 630.53 252.47 638.4 225.16 632.73 245.09 630.53"/><polygon class="cls-22" points="249.84 499.93 252.13 512.82 249.84 517.57 244.37 502.3 236.61 492.46 236.61 483.64 249.84 499.93"/><polygon class="cls-48" points="252.13 527.74 251.37 532.75 246.39 532.75 243.52 534.87 242.83 536.38 234.92 532.75 239.12 527.74 247.3 525.71 252.13 527.74"/><polygon class="cls-4" points="251.88 696.68 209.14 741.11 227.45 694.98 251.88 696.68"/><polygon class="cls-2" points="251.37 540.29 238.31 582.7 234.92 532.75 242.83 536.38 251.37 540.29"/><polygon class="cls-44" points="251.37 598.81 245.09 630.53 232.03 602.54 251.37 598.81"/><polygon class="cls-46" points="249.33 269.26 249.5 352.03 221.01 384.25 249.33 269.26"/><polygon class="cls-1" points="249.5 352.03 236.27 396.46 221.01 384.25 249.5 352.03"/><polygon class="cls-16" points="248.06 161.04 249.33 269.26 239.12 269.26 248.06 161.04"/><polygon class="cls-34" points="249.33 269.26 221.01 384.25 239.12 269.26 249.33 269.26"/><polygon class="cls-9" points="248.06 161.04 239.12 269.26 222.11 269.26 248.06 161.04"/><polygon class="cls-8" points="248.06 161.04 222.11 269.26 209.63 203.02 248.06 161.04"/><polygon class="cls-7" points="248.06 161.04 209.63 203.02 118.56 177.07 248.06 161.04"/><polygon class="cls-8" points="248.06 161.04 118.56 177.07 155.96 118.3 205.27 141.18 248.06 161.04"/><polygon class="cls-44" points="238.31 582.7 246.39 594.06 231.86 597.01 238.31 582.7"/><polygon class="cls-41" points="232.03 602.54 245.09 630.53 225.16 632.73 232.03 602.54"/><polygon class="cls-37" points="209.14 741.11 242.68 784.87 180.13 776.73 209.14 741.11"/><polygon class="cls-34" points="239.12 269.26 221.01 384.25 222.11 269.26 239.12 269.26"/><polygon class="cls-45" points="236.27 396.46 239.12 412.75 228.7 414.82 236.27 396.46"/><polygon class="cls-46" points="239.12 412.75 219.06 438.19 228.7 414.82 239.12 412.75"/><polygon class="cls-1" points="234.92 532.75 238.31 582.7 221.35 549.79 225.16 545 234.92 532.75"/><polygon class="cls-6" points="221.35 549.79 238.31 582.7 221.35 588.12 221.35 549.79"/><polygon class="cls-44" points="238.31 582.7 231.86 597.01 221.35 588.12 238.31 582.7"/><polygon class="cls-46" points="236.27 396.46 228.7 414.82 195.23 421.48 208.8 413.76 236.27 396.46"/><polygon class="cls-1" points="236.27 396.46 208.8 413.76 221.01 384.25 236.27 396.46"/><polygon class="cls-42" points="232.03 602.54 225.16 632.73 214.22 602.54 232.03 602.54"/><polygon class="cls-41" points="231.86 597.01 219.31 597.24 221.35 588.12 231.86 597.01"/><polygon class="cls-34" points="228.7 414.82 219.06 438.19 195.23 421.48 228.7 414.82"/><polygon class="cls-11" points="227.45 694.98 209.14 741.11 209.14 696.34 227.45 694.98"/><polygon class="cls-48" points="225.16 545 221.35 549.79 216.72 545 225.16 545"/><polygon class="cls-44" points="214.22 602.54 225.16 632.73 198.45 632.73 214.22 602.54"/><polygon class="cls-38" points="225.16 632.73 185.73 691.76 198.45 632.73 225.16 632.73"/><polygon class="cls-8" points="209.63 203.02 222.11 269.26 195.23 278.33 209.63 203.02"/><polygon class="cls-39" points="222.11 269.26 221.01 384.25 206.36 324.07 222.11 269.26"/><polygon class="cls-34" points="222.11 269.26 206.36 324.07 195.23 278.33 222.11 269.26"/><polygon class="cls-6" points="221.35 549.79 221.35 588.12 209.14 582.7 221.35 549.79"/><polygon class="cls-1" points="216.72 545 221.35 549.79 209.14 582.7 204.9 532.75 216.22 544.48 216.72 545"/><polygon class="cls-41" points="221.35 588.12 219.31 597.24 209.14 596.44 221.35 588.12"/><polygon class="cls-44" points="221.35 588.12 209.14 596.44 209.14 582.7 221.35 588.12"/><polygon class="cls-46" points="206.36 324.07 221.01 384.25 191.58 375.52 206.36 324.07"/><polygon class="cls-37" points="221.01 384.25 208.8 413.76 195.23 421.48 221.01 384.25"/><polygon class="cls-34" points="221.01 384.25 195.23 421.48 184.95 399.23 221.01 384.25"/><polygon class="cls-34" points="221.01 384.25 184.95 399.23 184.69 398.66 191.58 375.52 221.01 384.25"/><polygon class="cls-34" points="219.06 438.19 202.1 464.14 195.23 474.65 195.23 421.48 219.06 438.19"/><polygon class="cls-44" points="214.22 602.54 198.45 632.73 176.32 618.99 214.22 602.54"/><polygon class="cls-41" points="214.22 602.54 176.32 618.99 186.58 597.24 214.22 602.54"/><polygon class="cls-49" points="209.63 203.02 195.23 278.33 187.59 249.07 209.63 203.02"/><polygon class="cls-16" points="209.63 203.02 187.59 249.07 180.13 217.52 209.63 203.02"/><polygon class="cls-16" points="209.63 203.02 180.13 217.52 118.56 177.07 209.63 203.02"/><polygon class="cls-3" points="209.14 696.34 209.14 741.11 170.46 721.78 209.14 696.34"/><polygon class="cls-44" points="209.14 582.7 209.14 596.44 200.65 582.7 209.14 582.7"/><polygon class="cls-1" points="204.9 532.75 209.14 582.7 200.65 582.7 204.9 532.75"/><polygon class="cls-45" points="200.65 582.7 209.14 596.44 196.75 594.23 200.65 582.7"/><polygon class="cls-19" points="209.14 741.11 180.13 776.73 170.46 721.78 209.14 741.11"/><polygon class="cls-3" points="209.14 696.34 170.46 721.78 185.73 691.76 209.14 696.34"/><polygon class="cls-34" points="195.23 278.33 206.36 324.07 176.06 302.5 195.23 278.33"/><polygon class="cls-34" points="206.36 324.07 191.58 375.52 182.14 331.12 206.36 324.07"/><polygon class="cls-34" points="206.36 324.07 182.14 331.12 176.06 302.5 206.36 324.07"/><polygon class="cls-48" points="200.65 525.71 204.9 532.75 202.1 538.22 198.45 530.29 192.6 527.74 191.16 523.67 200.65 525.71"/><polygon class="cls-2" points="204.9 532.75 200.65 582.7 191.16 559.59 199.12 544.03 202.1 538.22 204.9 532.75"/><polygon class="cls-6" points="202.1 464.14 203.5 494.16 195.23 504.68 196.39 517.57 191.16 513.41 189.29 503.66 195.23 495.52 193.45 477.63 202.1 464.14"/><polygon class="cls-1" points="191.16 559.59 200.65 582.7 185.81 586.26 180.13 532.75 191.16 559.59"/><polygon class="cls-45" points="200.65 582.7 196.75 594.23 186.96 596.84 200.65 582.7"/><polygon class="cls-44" points="200.65 582.7 186.55 596.8 185.81 586.26 200.65 582.7"/><polygon class="cls-1" points="199.12 544.03 191.16 559.59 180.13 532.75 198.45 543.69 199.12 544.03"/><polygon class="cls-1" points="198.45 632.73 185.73 691.76 152.15 661.74 198.45 632.73"/><polygon class="cls-1" points="198.45 632.73 152.15 661.74 176.32 618.99 198.45 632.73"/><polygon class="cls-46" points="195.23 421.48 195.23 474.65 185.94 469.74 195.23 421.48"/><polygon class="cls-49" points="187.59 249.07 195.23 278.33 172.16 282.48 187.59 249.07"/><polygon class="cls-50" points="195.23 278.33 176.06 302.5 172.16 282.48 195.23 278.33"/><polygon class="cls-46" points="184.95 399.23 195.23 421.48 149.35 398.16 184.46 398.16 184.69 398.66 184.46 399.43 184.95 399.23"/><polygon class="cls-46" points="195.23 421.48 185.94 469.74 185.73 469.63 180.13 434.8 195.23 421.48"/><polygon class="cls-45" points="195.23 474.65 193.45 477.63 180.13 499.93 185.94 469.74 195.23 474.65"/><polygon class="cls-18" points="195.23 421.48 180.13 434.8 174.2 431.74 195.23 421.48"/><polygon class="cls-36" points="195.23 421.48 174.2 431.74 160.54 430.39 195.23 421.48"/><polygon class="cls-35" points="195.23 421.48 160.54 430.39 145.02 413.76 195.23 421.48"/><polygon class="cls-35" points="195.23 421.48 145.02 413.76 149.35 398.16 195.23 421.48"/><polygon class="cls-39" points="182.14 331.12 191.58 375.52 159.02 337.86 182.14 331.12"/><polygon class="cls-34" points="159.02 337.86 191.58 375.52 149.35 398.16 159.02 337.86"/><polygon class="cls-46" points="191.58 375.52 184.69 398.66 184.46 398.16 149.35 398.16 191.58 375.52"/><polygon class="cls-49" points="180.13 217.52 187.59 249.07 172.16 282.48 180.13 217.52"/><polygon class="cls-44" points="186.56 596.95 186.58 597.24 170.97 589.82 185.81 586.26 186.55 596.8 186.34 597.01 186.56 596.95"/><polygon class="cls-42" points="186.58 597.24 176.32 618.99 161.81 599.15 186.58 597.24"/><polygon class="cls-42" points="186.58 597.24 161.81 599.15 170.97 589.82 186.58 597.24"/><polygon class="cls-34" points="185.73 469.63 185.94 469.74 180.13 499.93 155.96 453.88 185.73 469.63"/><polygon class="cls-6" points="180.13 532.75 185.81 586.26 170.97 589.82 180.13 532.75"/><polygon class="cls-38" points="185.73 469.63 155.96 453.88 180.13 434.8 185.73 469.63"/><polygon class="cls-3" points="185.73 691.76 170.46 721.78 152.15 661.74 185.73 691.76"/><polygon class="cls-34" points="176.06 302.5 182.14 331.12 159.02 337.86 176.06 302.5"/><polygon class="cls-6" points="180.13 499.93 180.13 532.75 178.61 517.57 180.13 499.93"/><polygon class="cls-8" points="180.13 217.52 172.16 282.48 138.92 278.75 180.13 217.52"/><polygon class="cls-7" points="180.13 217.52 138.92 278.75 140.44 229.74 180.13 217.52"/><polygon class="cls-45" points="155.96 453.88 180.13 499.93 130.01 513.41 155.96 453.88"/><polygon class="cls-3" points="180.13 499.93 178.61 517.57 146.72 538.22 180.13 499.93"/><polygon class="cls-34" points="180.13 499.93 146.72 538.22 130.01 513.41 180.13 499.93"/><polygon class="cls-3" points="178.61 517.57 180.13 532.75 162.25 553.9 161.81 553.52 178.61 517.57"/><polygon class="cls-6" points="180.13 532.75 170.97 589.82 161.81 599.15 180.13 532.75"/><polygon class="cls-25" points="180.13 532.75 161.81 599.15 126.7 628.15 180.13 532.75"/><polygon class="cls-3" points="180.13 532.75 126.7 628.15 117.55 606.78 140.65 579.45 162.25 553.9 180.13 532.75"/><polygon class="cls-33" points="170.46 721.78 180.13 776.73 113.47 776.73 170.46 721.78"/><polygon class="cls-16" points="180.13 217.52 140.44 229.74 118.56 177.07 180.13 217.52"/><polygon class="cls-34" points="180.13 434.8 155.96 453.88 174.2 431.74 180.13 434.8"/><polygon class="cls-51" points="178.61 517.57 161.81 553.52 146.72 538.22 178.61 517.57"/><polygon class="cls-11" points="161.81 599.15 176.32 618.99 152.15 661.74 161.81 599.15"/><polygon class="cls-52" points="172.16 282.48 176.06 302.5 156.56 306.57 172.16 282.48"/><polygon class="cls-53" points="176.06 302.5 159.02 337.86 156.56 306.57 176.06 302.5"/><polygon class="cls-34" points="174.2 431.74 155.96 453.88 153.08 442.26 174.2 431.74"/><polygon class="cls-36" points="174.2 431.74 153.08 442.26 118.91 447.26 110.93 438.19 110.93 430.22 120.6 437.09 131.54 437.09 160.54 430.39 174.2 431.74"/><polygon class="cls-11" points="172.16 282.48 156.56 306.57 114.52 308.06 172.16 282.48"/><polygon class="cls-11" points="172.16 282.48 114.52 308.06 114.51 308.06 138.92 278.75 172.16 282.48"/><polygon class="cls-6" points="152.15 661.74 170.46 721.78 113.47 776.73 152.15 661.74"/><polygon class="cls-51" points="162.25 553.9 140.65 579.45 146.72 538.22 161.81 553.52 162.25 553.9"/><polygon class="cls-3" points="161.81 599.15 152.15 661.74 126.7 628.15 161.81 599.15"/><polygon class="cls-35" points="145.02 413.76 160.54 430.39 131.54 437.09 145.02 413.76"/><polygon class="cls-52" points="156.56 306.57 159.02 337.86 133.51 341.85 156.56 306.57"/><polygon class="cls-39" points="159.02 337.86 149.35 398.16 127.21 399.43 159.02 337.86"/><polygon class="cls-39" points="159.02 337.86 127.21 399.43 128.49 378.65 159.02 337.86"/><polygon class="cls-54" points="159.02 337.86 128.49 378.65 133.51 341.85 159.02 337.86"/><polygon class="cls-1" points="156.56 306.57 133.51 341.85 99.57 339.14 156.56 306.57"/><polygon class="cls-18" points="156.56 306.57 99.57 339.14 62.59 349.99 79.89 309.28 114.5 308.06 114.51 308.06 114.52 308.06 156.56 306.57"/><polygon class="cls-10" points="107.89 59.53 155.96 118.3 91.92 96.31 107.89 59.53"/><polygon class="cls-55" points="155.96 118.3 118.56 177.07 72.43 141.2 155.96 118.3"/><polygon class="cls-34" points="153.08 442.26 155.96 453.88 118.91 447.26 153.08 442.26"/><polygon class="cls-56" points="155.96 453.88 130.01 513.41 118.56 506.71 155.96 453.88"/><polygon class="cls-54" points="155.96 453.88 118.56 506.71 133.51 467.36 155.96 453.88"/><polygon class="cls-57" points="155.96 118.3 72.43 141.2 91.92 96.31 155.96 118.3"/><polygon class="cls-34" points="155.96 453.88 133.51 467.36 84.3 488.73 84.29 488.81 82.27 462.02 155.96 453.88"/><polygon class="cls-34" points="155.96 453.88 82.27 462.02 118.91 447.26 155.96 453.88"/><polygon class="cls-32" points="126.7 628.15 152.15 661.74 126.7 661.74 126.7 628.15"/><polygon class="cls-6" points="152.15 661.74 113.47 776.73 126.7 661.74 152.15 661.74"/><polygon class="cls-35" points="149.35 398.16 145.02 413.76 127.21 399.43 149.35 398.16"/><polygon class="cls-34" points="130.01 513.41 146.72 538.22 123.65 543.69 130.01 513.41"/><polygon class="cls-51" points="146.72 538.22 140.65 579.45 136.55 562.13 146.72 538.22"/><polygon class="cls-51" points="146.72 538.22 136.55 562.13 134.51 553.52 146.72 538.22"/><polygon class="cls-46" points="146.72 538.22 134.51 553.52 123.65 543.69 146.72 538.22"/><polygon class="cls-35" points="145.02 413.76 131.54 437.09 110.93 409.82 145.02 413.76"/><polygon class="cls-35" points="145.02 413.76 110.93 409.82 127.21 399.43 145.02 413.76"/><polygon class="cls-51" points="136.55 562.13 140.65 579.45 130.59 576.13 136.55 562.13"/><polygon class="cls-3" points="140.65 579.45 117.55 606.78 130.59 576.13 140.65 579.45"/><polygon class="cls-10" points="118.56 177.07 140.44 229.74 111.1 269.26 118.56 177.07"/><polygon class="cls-8" points="140.44 229.74 138.92 278.75 111.1 269.26 140.44 229.74"/><polygon class="cls-58" points="138.92 278.75 114.51 308.06 111.1 269.26 138.92 278.75"/><polygon class="cls-51" points="134.51 553.52 136.55 562.13 130.59 576.13 126.37 574.73 134.51 553.52"/><polygon class="cls-46" points="134.51 553.52 126.37 574.73 123.65 543.69 134.51 553.52"/><polygon class="cls-50" points="133.51 341.85 128.49 378.65 104.32 380.86 133.51 341.85"/><polygon class="cls-1" points="133.51 341.85 104.32 380.86 99.57 339.14 133.51 341.85"/><polygon class="cls-3" points="133.51 467.36 118.56 506.71 82.27 499.93 133.51 467.36"/><polygon class="cls-34" points="133.51 467.36 82.27 499.93 84.25 488.99 84.3 488.99 84.29 488.81 84.3 488.73 133.51 467.36"/><polygon class="cls-35" points="110.93 409.82 131.54 437.09 120.6 437.09 110.93 409.82"/><polygon class="cls-3" points="126.37 574.73 130.59 576.13 117.55 606.78 126.37 574.73"/><polygon class="cls-50" points="130.01 513.41 123.65 543.69 117.55 532.75 130.01 513.41"/><polygon class="cls-50" points="130.01 513.41 117.55 532.75 118.56 506.71 130.01 513.41"/><polygon class="cls-46" points="128.49 378.65 127.21 399.43 110.93 409.82 128.49 378.65"/><polygon class="cls-59" points="128.49 378.65 110.93 409.82 104.32 380.86 128.49 378.65"/><polygon class="cls-13" points="117.55 606.78 126.7 628.15 82.27 653.09 117.55 606.78"/><polygon class="cls-19" points="126.7 661.74 113.47 776.73 103.3 700.41 126.7 661.74"/><polygon class="cls-46" points="123.65 543.69 126.37 574.73 118.56 574.64 123.65 543.69"/><polygon class="cls-46" points="126.37 574.73 117.55 606.78 118.56 574.64 126.37 574.73"/><polygon class="cls-54" points="117.55 532.75 123.65 543.69 118.56 574.64 117.55 532.75"/><polygon class="cls-35" points="110.93 409.82 120.6 437.09 110.93 430.22 110.93 409.82"/><polygon class="cls-34" points="110.93 438.19 118.91 447.26 82.27 462.02 110.93 438.19"/><polygon class="cls-9" points="118.56 177.07 111.1 269.26 72.43 282.48 118.56 177.07"/><polygon class="cls-55" points="118.56 177.07 72.43 282.48 72.43 141.2 118.56 177.07"/><polygon class="cls-11" points="118.56 506.71 117.55 532.75 89.05 536.56 88.88 536.39 118.56 506.71"/><polygon class="cls-11" points="118.56 506.71 88.88 536.39 82.27 499.93 118.56 506.71"/><polygon class="cls-56" points="117.55 532.75 118.56 574.64 112.8 574.73 117.55 532.75"/><path class="cls-50" d="M239.52,605.83l-1,32.14s-4.58-30.68-4.75-32.05Z" transform="translate(-120.96 -31.19)"/><path class="cls-17" d="M238.51,563.94l-4.75,42c-.17-1.36-8.48,13.39-8.48,13.39Z" transform="translate(-120.96 -31.19)"/><polygon class="cls-3" points="117.55 532.75 104.32 588.12 93.12 560.65 117.55 532.75"/><polygon class="cls-3" points="117.55 532.75 93.12 560.65 89.05 536.56 117.55 532.75"/><path class="cls-3" d="M238.51,638l-13.23-18.66s8.31-14.75,8.48-13.39S238.51,638,238.51,638Z" transform="translate(-120.96 -31.19)"/><polygon class="cls-7" points="104.32 588.12 117.55 606.78 82.27 653.09 93.12 560.65 104.32 588.12"/><polygon class="cls-58" points="111.1 269.26 114.51 308.06 114.5 308.06 72.43 282.48 111.1 269.26"/><polygon class="cls-11" points="72.43 282.48 114.5 308.06 79.89 309.28 72.43 282.48"/><polygon class="cls-11" points="103.3 700.41 113.47 776.73 75.82 721.78 103.3 700.41"/><polygon class="cls-3" points="75.82 721.78 113.47 776.73 2.55 763.5 75.82 721.78"/><polygon class="cls-46" points="110.93 430.22 110.93 438.19 82.27 462.02 110.93 430.22"/><polygon class="cls-35" points="110.93 409.82 110.93 430.22 101.01 431.74 110.93 409.82"/><polygon class="cls-59" points="104.32 380.86 110.93 409.82 89.05 422.58 104.32 380.86"/><polygon class="cls-60" points="110.93 409.82 101.01 431.74 89.05 422.58 110.93 409.82"/><polygon class="cls-34" points="110.93 430.22 82.27 462.02 101.01 431.74 110.93 430.22"/><polygon class="cls-16" points="107.89 59.53 91.92 96.31 62.59 86.24 107.89 59.53"/><polygon class="cls-1" points="99.57 339.14 104.32 380.86 62.59 380.86 99.57 339.14"/><polygon class="cls-1" points="104.32 380.86 89.05 422.58 79.2 407.04 104.32 380.86"/><polygon class="cls-37" points="104.32 380.86 79.2 407.04 62.59 380.86 104.32 380.86"/><polygon class="cls-50" points="101.01 431.74 82.27 462.02 81.72 461.92 89.05 422.58 101.01 431.74"/><polygon class="cls-18" points="99.57 339.14 62.59 380.86 62.59 349.99 99.57 339.14"/><polygon class="cls-8" points="93.12 560.65 82.27 653.09 52.92 641.19 93.12 560.65"/><polygon class="cls-9" points="91.92 96.31 72.43 141.2 62.59 86.24 91.92 96.31"/><polygon class="cls-11" points="79.2 407.04 89.05 422.58 64.29 422.58 79.2 407.04"/><polygon class="cls-56" points="89.05 422.58 81.72 461.92 76.67 488.99 73.11 467.36 89.05 422.58"/><polygon class="cls-58" points="89.05 422.58 73.11 467.36 64.29 442.26 89.05 422.58"/><polygon class="cls-58" points="89.05 422.58 64.29 442.26 64.29 422.58 89.05 422.58"/><polygon class="cls-20" points="82.27 462.02 84.29 488.81 84.25 488.99 76.67 488.99 81.72 461.92 82.27 462.02"/><polygon class="cls-20" points="84.25 488.99 82.27 499.93 76.67 488.99 84.25 488.99"/><polygon class="cls-11" points="72.43 282.48 79.89 309.28 61.32 311.66 72.43 282.48"/><polygon class="cls-11" points="79.89 309.28 62.59 349.99 61.32 311.66 79.89 309.28"/><polygon class="cls-11" points="79.2 407.04 64.29 422.58 62.59 380.86 79.2 407.04"/><polygon class="cls-6" points="73.11 467.36 76.67 488.99 62.59 459.83 73.11 467.36"/><polygon class="cls-6" points="64.29 442.26 73.11 467.36 62.59 459.83 64.29 442.26"/><polygon class="cls-10" points="72.43 141.2 72.43 282.48 27.65 262.81 72.43 141.2"/><polygon class="cls-8" points="62.59 86.24 72.43 141.2 18.32 146.29 62.59 86.24"/><polygon class="cls-7" points="72.43 141.2 27.65 262.81 0 199.71 72.43 141.2"/><polygon class="cls-22" points="72.43 282.48 61.32 311.66 55.75 303.58 72.43 282.48"/><polygon class="cls-49" points="72.43 282.48 55.75 303.58 27.65 262.81 72.43 282.48"/><polygon class="cls-9" points="72.43 141.2 0 199.71 18.32 146.29 72.43 141.2"/><polygon class="cls-10" points="64.29 422.58 64.29 442.26 43.59 395.11 62.59 380.86 64.29 422.58"/><polygon class="cls-6" points="43.59 395.11 64.29 442.26 27.65 387.47 43.59 395.11"/><polygon class="cls-3" points="27.65 387.47 64.29 442.26 62.59 459.83 27.65 387.47"/><polygon class="cls-49" points="62.59 349.99 62.59 380.86 32.74 362.54 62.59 349.99"/><polygon class="cls-49" points="61.32 311.66 62.59 349.99 32.74 332.69 61.32 311.66"/><polygon class="cls-10" points="62.59 349.99 32.74 362.54 32.74 332.69 62.59 349.99"/><polygon class="cls-8" points="62.59 380.86 43.59 395.11 32.74 362.54 62.59 380.86"/><polygon class="cls-8" points="55.75 303.58 61.32 311.66 32.74 332.69 55.75 303.58"/><polygon class="cls-8" points="27.65 262.81 55.75 303.58 32.74 332.69 27.65 262.81"/><polygon class="cls-6" points="32.74 362.54 43.59 395.11 27.65 387.47 32.74 362.54"/><polygon class="cls-1" points="225.34 430.22 225.34 483.64 214.22 483.64 214.22 446.12 225.34 430.22"/></svg>