<svg xmlns="http://www.w3.org/2000/svg" viewBox="0 0 595.28 841.89"><defs><style>.cls-1{fill:#3eb489;opacity:0.36;}.cls-2{fill:#dd9292;opacity:0.33;}</style></defs><title>SELF PORTRAIT</title><g id="Layer_4" data-name="Layer 4"><rect class="cls-1" x="56.31" y="52.87" width="512.28" height="649.53" rx="12"/></g><g id="Layer_3" data-name="Layer 3"><ellipse class="cls-2" cx="266.58" cy="365.61" rx="211.14" ry="237.34"/></g><g id="Layer_2" data-name="Layer 2"><path d="M263,739.18c-6.76-1.66-13.42-3.68-20-5.87s-13.14-4.59-19.59-7.21A251.27,251.27,0,0,1,186,707.42c-11.84-7.31-23-15.92-32.27-26.42a86.85,86.85,0,0,1-11.89-17.22,78.24,78.24,0,0,1-4.11-9.66,70,70,0,0,1-2.55-10.19,62.25,62.25,0,0,1-.87-10.47c-.07-1.76.1-3.51.16-5.26.07-.87.17-1.74.26-2.61s.17-1.75.33-2.61c.27-1.73.54-3.46.95-5.17.2-.85.35-1.72.58-2.56l.7-2.53.34-1.27a5.39,5.39,0,0,1,.63-1.33,4.31,4.31,0,0,1,2.36-1.72,4.63,4.63,0,0,1,2.92.13,4.25,4.25,0,0,1,2.21,1.92,20.15,20.15,0,0,1,.94,2.54c.26.82.59,1.63.89,2.43s.63,1.61,1,2.41.67,1.59,1,2.36a69.44,69.44,0,0,0,5,9.06,72.42,72.42,0,0,0,13.55,15.57,80,80,0,0,0,17.22,11.41,100.85,100.85,0,0,0,19.45,7.1,127.39,127.39,0,0,0,20.44,3.54l2.59.27c.86.07,1.73.1,2.59.15l5.19.29,5.2.07c1.73,0,3.47.06,5.2,0a265,265,0,0,0,41.36-4.41l5.12-.93,5.1-1.08c3.39-.72,6.8-1.41,10.16-2.28l5.05-1.23,2.53-.62c.84-.2,1.64-.48,2.48-.72,3.33-1,6.64-2.06,10-3.11,13.24-4.25,26.41-8.74,39.44-13.59s25.93-10.09,38.36-16.24c1.54-.79,3.12-1.51,4.63-2.36l4.53-2.51c1.54-.8,3-1.79,4.41-2.71l2.18-1.39a9.76,9.76,0,0,0,1-.68,2.85,2.85,0,0,0,.6-.78,2.94,2.94,0,0,0-.65-3.61,2.78,2.78,0,0,0-.4-.3l-.56-.34-1.12-.68c-.75-.46-1.49-.94-2.22-1.43a80.17,80.17,0,0,1-8.39-6.41,61.5,61.5,0,0,1-13.42-16.29,45.64,45.64,0,0,1-5.8-20.31c-.06-.88-.06-1.77,0-2.66s0-1.78.11-2.66l.09-1.33.16-1.32.16-1.32a4.83,4.83,0,0,1,.47-1.53,5,5,0,0,1,1-1.31l.93-.9c.62-.59,1.21-1.22,1.81-1.84,1.21-1.22,2.33-2.55,3.49-3.82A151.42,151.42,0,0,0,411,528.35a203.44,203.44,0,0,0,19-36.85,248.65,248.65,0,0,0,11.88-39.82c3-13.53,4.47-27.38,6.32-41.18s3.58-27.61,5.08-41.44c.7-6.91,1.39-13.83,1.7-20.75a136.57,136.57,0,0,0-.29-20.73,119.6,119.6,0,0,0-4-20.32c-.43-1.68-.93-3.34-1.43-5l-.75-2.49-.19-.62c-.07-.17-.1-.3-.2-.5l-.55-1.19c-1.45-3.17-2.85-6.37-4.15-9.62-.65-1.63-1.27-3.27-1.83-4.95-.28-.83-.54-1.69-.77-2.56-.1-.45-.22-.87-.29-1.34l-.1-.71a.71.71,0,0,0,0-.18s-.05-.12-.06-.17A10.77,10.77,0,0,0,439,276c-.54-.65-1.12-1.27-1.71-1.89-1.2-1.24-2.44-2.44-3.7-3.62-5.07-4.72-10.39-9.2-15.79-13.57s-10.92-8.59-16.55-12.64c-2.83-2-5.68-4-8.61-5.83-1.46-.91-2.94-1.8-4.44-2.61-.76-.39-1.52-.77-2.29-1.1a7.55,7.55,0,0,0-2.21-.64,359.79,359.79,0,0,0-41.66-.56,185.87,185.87,0,0,0-20.67,2.16c-6.8,1.2-13.6,2.8-19.83,5.68-.78.36-1.56.72-2.3,1.15a23.1,23.1,0,0,0-2.2,1.3A21.7,21.7,0,0,0,295,245.3l-1,.8a3.16,3.16,0,0,0-.8.79,5.3,5.3,0,0,0-.52,1l-.49,1.19c-.33.8-.64,1.61-.94,2.42-.6,1.62-1.17,3.26-1.7,4.9A108.91,108.91,0,0,0,285,276.67a73.55,73.55,0,0,0,.25,20.64,51.89,51.89,0,0,0,2.65,10l1,2.38a3.26,3.26,0,0,0,1.45,1.65,3.45,3.45,0,0,0,2.18.37l2.6-.29c3.47-.36,6.95-.66,10.44-.85,1.74-.1,3.49-.16,5.24-.17a39,39,0,0,1,5.28.26c3.48.46,6.9,1.05,10.34,1.56s6.88,1,10.33,1.38a136,136,0,0,0,20.77.88,63.08,63.08,0,0,0,20.29-3.84,34.38,34.38,0,0,0,8.95-5.11,20.73,20.73,0,0,0,3.63-3.62,15,15,0,0,0,1.4-2.13l.49-1.16a7.39,7.39,0,0,0,.35-1.22,8.84,8.84,0,0,0-.35-5,12.71,12.71,0,0,0-2.7-4.29,22.41,22.41,0,0,0-3.87-3.4,39.84,39.84,0,0,0-4.42-2.7,60.28,60.28,0,0,0-19.82-6,51.55,51.55,0,0,0-10.39-.28c-3.46.32-6.92.65-10.37,1.14-6.87.94-13.79,2.23-20.17,5a35.32,35.32,0,0,0-8.8,5.52,96.88,96.88,0,0,0-7.27,7.48,97,97,0,0,1,7.23-7.53,35.59,35.59,0,0,1,8.79-5.58c6.39-2.85,13.31-4.18,20.19-5.17,3.45-.5,6.91-.86,10.38-1.2a52.14,52.14,0,0,1,10.45.22,60.9,60.9,0,0,1,20,5.91,38.16,38.16,0,0,1,4.5,2.72,23.31,23.31,0,0,1,4,3.45,13.37,13.37,0,0,1,2.84,4.46,9.55,9.55,0,0,1,.4,5.29,8.38,8.38,0,0,1-.37,1.3l-.51,1.24a16.72,16.72,0,0,1-1.45,2.23,22.06,22.06,0,0,1-3.72,3.76,35.28,35.28,0,0,1-9.09,5.26,63.9,63.9,0,0,1-20.53,4,136.58,136.58,0,0,1-20.92-.77c-6.94-.7-13.83-1.92-20.69-2.86a38.15,38.15,0,0,0-5.14-.24c-1.73,0-3.46.09-5.19.19-3.46.2-6.92.51-10.38.88l-2.58.29a4.52,4.52,0,0,1-2.87-.49,4.4,4.4,0,0,1-1.95-2.18c-.34-.81-.7-1.62-1-2.44a53.66,53.66,0,0,1-2.75-10.17,74.93,74.93,0,0,1-.32-21A110.26,110.26,0,0,1,288.28,256q.8-2.51,1.71-5c.3-.82.61-1.64.94-2.45l.5-1.22a6.5,6.5,0,0,1,.65-1.29,4.48,4.48,0,0,1,1-1.05l1-.84a23.22,23.22,0,0,1,2.18-1.54,26.52,26.52,0,0,1,2.29-1.36,25,25,0,0,1,2.37-1.19c6.41-3,13.3-4.63,20.17-5.86A184.87,184.87,0,0,1,342,232a362.34,362.34,0,0,1,41.82.42,9.28,9.28,0,0,1,2.79.77c.83.35,1.63.75,2.42,1.16,1.56.84,3.07,1.74,4.56,2.67,3,1.87,5.84,3.85,8.69,5.87,5.68,4.07,11.21,8.31,16.65,12.69s10.77,8.86,15.9,13.63c1.27,1.19,2.54,2.41,3.76,3.68.61.64,1.21,1.29,1.8,2a11.61,11.61,0,0,1,1.63,2.34c.05.15.11.25.16.44s.07.4.08.46l.09.58c.06.39.17.8.26,1.21.22.81.46,1.62.74,2.43.54,1.63,1.16,3.24,1.8,4.85,1.29,3.21,2.68,6.39,4.13,9.54l.54,1.18c.09.19.2.48.29.71l.19.63.75,2.51c.51,1.67,1,3.34,1.46,5a122.21,122.21,0,0,1,4,20.62,139,139,0,0,1,.33,21c-.32,7-1,13.92-1.7,20.86-1.48,13.86-3.27,27.67-5,41.48-.9,6.91-1.73,13.81-2.7,20.71l-1.6,10.36c-.14.86-.25,1.73-.41,2.58l-.53,2.57-1.06,5.13a249.72,249.72,0,0,1-11.93,40.14,205.3,205.3,0,0,1-19.28,37.2A153.54,153.54,0,0,1,400,546.2c-1.19,1.29-2.32,2.63-3.56,3.88-.61.63-1.21,1.27-1.86,1.88l-.93.91a3,3,0,0,0-.59.79,2.69,2.69,0,0,0-.28,1l-.16,1.27-.16,1.27-.09,1.28c-.06.85-.11,1.7-.1,2.55s0,1.71,0,2.56A43.8,43.8,0,0,0,397.84,583a59.25,59.25,0,0,0,13,15.8,77.73,77.73,0,0,0,8.18,6.27c.72.48,1.44.95,2.17,1.4l1.1.67.57.34a5.09,5.09,0,0,1,.64.48,4.77,4.77,0,0,1,1.07,5.88,4.54,4.54,0,0,1-1,1.27,8.57,8.57,0,0,1-1.16.83l-2.22,1.42c-1.49.93-2.94,1.94-4.49,2.75l-4.6,2.54c-1.53.86-3.12,1.58-4.67,2.37a418.4,418.4,0,0,1-38.55,16.28c-13.07,4.85-26.27,9.33-39.54,13.57-3.32,1.05-6.64,2.1-10,3.11-.83.24-1.67.53-2.53.74l-2.54.61-5.09,1.24c-3.39.87-6.8,1.56-10.22,2.28L292.86,664l-5.15.91a266.63,266.63,0,0,1-41.62,4.3c-1.75.08-3.5,0-5.24,0l-5.24-.09-5.24-.31c-.87-.06-1.74-.09-2.61-.17l-2.61-.28a129,129,0,0,1-20.65-3.64,101.83,101.83,0,0,1-19.69-7.26,81.43,81.43,0,0,1-17.46-11.65,74,74,0,0,1-13.72-15.87,71.11,71.11,0,0,1-5-9.22c-.39-.79-.73-1.6-1.06-2.41s-.68-1.61-1-2.44-.62-1.64-.89-2.48a21,21,0,0,0-.85-2.35,3.32,3.32,0,0,0-3.84-1.54,3.18,3.18,0,0,0-1.77,1.28,4.23,4.23,0,0,0-.48,1l-.35,1.24-.69,2.5c-.23.84-.39,1.69-.59,2.53-.41,1.68-.67,3.39-1,5.09-.16.85-.24,1.71-.33,2.57s-.2,1.72-.27,2.58c-.06,1.73-.24,3.45-.18,5.18a64.76,64.76,0,0,0,.82,10.31,69.28,69.28,0,0,0,2.45,10.06,76.94,76.94,0,0,0,4,9.56,86,86,0,0,0,11.68,17.13c9.12,10.48,20.2,19.12,32,26.49a251.48,251.48,0,0,0,37.18,18.86q9.64,4,19.54,7.33C249.6,735.42,256.25,737.48,263,739.18Z"/><path d="M386.71,306a12.2,12.2,0,0,0-.38-3.13,15,15,0,0,0-1-2.94,14.81,14.81,0,0,0-3.77-4.85,23.49,23.49,0,0,0-11.18-4.86c-4.05-.68-8.31-.91-12.51-1.23s-8.4-.63-12.58-.63A47.37,47.37,0,0,0,333,289.64a35.82,35.82,0,0,0-11.19,5.13q-5.24,3.51-10.18,7.45a121.25,121.25,0,0,0-9.53,8.32,107.8,107.8,0,0,1,18.82-17.05,35.83,35.83,0,0,1,11.6-5.68,47.93,47.93,0,0,1,12.81-1.43c4.28,0,8.51.38,12.73.75a115.72,115.72,0,0,1,12.67,1.59,23.78,23.78,0,0,1,11.52,5.66A14.52,14.52,0,0,1,386.71,306Z"/><path d="M365.75,288.76a22.35,22.35,0,0,1-.41,7.85,18.78,18.78,0,0,1-3.36,7.27,19,19,0,0,1-6.26,5.17,26.78,26.78,0,0,1-7.78,2.28,16,16,0,0,1-8.12-1.16,14,14,0,0,1-3.51-2.19,16,16,0,0,1-2.8-3,24.91,24.91,0,0,1-3.63-7.11,31.9,31.9,0,0,1-1.55-7.7,42.05,42.05,0,0,0,2.47,7.35,27.15,27.15,0,0,0,3.93,6.49,14.92,14.92,0,0,0,5.83,4.38,14.41,14.41,0,0,0,7.17.91,25.84,25.84,0,0,0,7.16-2,18.56,18.56,0,0,0,5.87-4.45C364,299.11,365.54,293.93,365.75,288.76Z"/><path d="M292.58,246.47a40.16,40.16,0,0,1,8.94,4.1c2.84,1.65,5.59,3.43,8.47,5a28.67,28.67,0,0,0,9,3.24,33.14,33.14,0,0,0,9.59,0c12.87-1.76,25.58-5.53,38.88-6.13,1.66-.09,3.32,0,5,0s3.33.17,5,.4,3.29.51,4.93.81l2.42.6c.81.2,1.62.4,2.4.66a103.79,103.79,0,0,1,18.2,7.74c5.83,3,11.53,6.25,17.45,9a78.27,78.27,0,0,0,18.52,6.28,73.21,73.21,0,0,1-18.91-5.38c-6.06-2.58-11.87-5.66-17.75-8.51a115.4,115.4,0,0,0-18-7.37c-.77-.25-1.56-.44-2.34-.62l-2.35-.56c-1.59-.28-3.17-.6-4.77-.74s-3.21-.26-4.82-.35-3.23,0-4.84.06a131.22,131.22,0,0,0-19.35,2.43c-6.43,1.15-12.85,2.55-19.44,3.23a34.53,34.53,0,0,1-10-.29,29.42,29.42,0,0,1-9.28-3.62C303.83,253,298.78,248.75,292.58,246.47Z"/><path d="M223.14,402.18a25.72,25.72,0,0,1,2.94-4.54,21.6,21.6,0,0,1,3.9-3.86,12.2,12.2,0,0,1,5.14-2.27,9.7,9.7,0,0,1,5.66.9,16,16,0,0,1,4.52,3.4c1.28,1.42,2.37,2.73,3.59,4,.64.59,1.24,1.23,1.9,1.79l1,.8a6.78,6.78,0,0,0,1,.74l1.08.65c.36.2.75.33,1.12.49.19.08.38.17.57.23l.58.13a4.3,4.3,0,0,0,1.17.17,7.2,7.2,0,0,0,4.48-1.31,27.17,27.17,0,0,0,3.92-3.4l1-1c.33-.3.62-.56.93-.88l1.83-2A15.57,15.57,0,0,1,274,392.8a7.73,7.73,0,0,1,2.88-.75,7.4,7.4,0,0,1,2.92.47,13.53,13.53,0,0,1,4.59,3.21,32.18,32.18,0,0,1,3.39,4.28,47.52,47.52,0,0,1,2.79,4.64,46.87,46.87,0,0,0-6.85-8.21,12.93,12.93,0,0,0-4.35-2.69,5.9,5.9,0,0,0-4.67.45c-2.9,1.56-4.85,4.84-7.58,7.25a27.28,27.28,0,0,1-4.18,3.69,9.07,9.07,0,0,1-5.67,1.66,5.33,5.33,0,0,1-1.49-.23l-.73-.17c-.24-.07-.46-.18-.69-.27-.44-.2-.91-.37-1.33-.6l-1.23-.75a9.62,9.62,0,0,1-1.15-.83l-1.09-.89c-.71-.61-1.34-1.29-2-1.94-1.23-1.35-2.42-2.84-3.51-4.12a15.43,15.43,0,0,0-3.94-3.2,8.43,8.43,0,0,0-4.79-1,11,11,0,0,0-4.76,1.78A26.35,26.35,0,0,0,223.14,402.18Z"/><path d="M233.82,405.47a22.38,22.38,0,0,1-2.55,6,9.15,9.15,0,0,1-5,4.17,6.49,6.49,0,0,1-3.36,0,11.17,11.17,0,0,1-3-1.39,20.17,20.17,0,0,1-2.6-2c-.82-.73-1.63-1.46-2.39-2.24a36.9,36.9,0,0,1-7.69-10.63,19.45,19.45,0,0,1-1.45-13.12,29.63,29.63,0,0,1,2.59-6.14c1-1.94,2.17-3.8,3.34-5.64,2.36-3.67,4.88-7.22,7.49-10.7.32-.42.69-.88,1-1.28l.32-.55.35-.74c.47-1,1-2,1.49-2.93,1-1.94,2.13-3.83,3.33-5.67a47.23,47.23,0,0,1,4-5.31,23.25,23.25,0,0,1,5.07-4.49l.33-.22a1.18,1.18,0,0,1,.18-.13,3.72,3.72,0,0,0,.38-.46,7.37,7.37,0,0,0,.68-1.25,20.55,20.55,0,0,0,1-2.93,55.88,55.88,0,0,0,1.24-6.26c.62-4.24,1-8.54,1.2-12.84.46-8.61.34-17.26-.06-25.88a184.69,184.69,0,0,0-3-25.7,85.44,85.44,0,0,0-3.28-12.5,42.08,42.08,0,0,0-2.63-5.9,18.91,18.91,0,0,0-3.89-5.13,19.33,19.33,0,0,1,4.15,5,39.68,39.68,0,0,1,2.86,5.86,85,85,0,0,1,3.75,12.49,185.56,185.56,0,0,1,3.53,25.81,224.29,224.29,0,0,1,.34,26.06c-.2,4.34-.53,8.69-1.13,13a58.86,58.86,0,0,1-1.24,6.49,22,22,0,0,1-1.06,3.22,9.32,9.32,0,0,1-.86,1.61,5.82,5.82,0,0,1-.66.78l-.48.36-.34.23a21.44,21.44,0,0,0-4.64,4.07,44.6,44.6,0,0,0-3.83,5.07c-1.18,1.77-2.27,3.62-3.29,5.5-.51.94-1,1.89-1.47,2.85l-.35.72c-.14.26-.33.57-.51.85-.34.48-.66.86-1,1.3-2.61,3.43-5.14,6.93-7.49,10.53-1.17,1.81-2.29,3.64-3.33,5.5a28.22,28.22,0,0,0-2.57,5.75,18,18,0,0,0,1.12,12.21,36.06,36.06,0,0,0,7.24,10.46c.72.79,1.49,1.54,2.27,2.28a19.54,19.54,0,0,0,2.43,2.05,10.49,10.49,0,0,0,2.8,1.4,5.78,5.78,0,0,0,3.06.11,8.8,8.8,0,0,0,4.87-3.83A22.11,22.11,0,0,0,233.82,405.47Z"/><path d="M271.22,411.23a62.39,62.39,0,0,0,11.9,2.82,32.49,32.49,0,0,0,12-.3,16.55,16.55,0,0,0,5.35-2.28,13.5,13.5,0,0,0,3.9-4.17c2-3.3,2.68-7.34,2.72-11.31,0-1,0-2-.05-3l-.1-1.5-.05-.73a2.8,2.8,0,0,0-.12-.56c-.67-1.84-1.49-3.74-2.33-5.56a60.15,60.15,0,0,0-6.07-10.46,32.88,32.88,0,0,0-4-4.53c-.17-.17-.36-.34-.58-.57a4.18,4.18,0,0,1-.53-.72,4.43,4.43,0,0,1-.6-1.65,4.33,4.33,0,0,1,0-.88l0-.76q0-.75,0-1.5a17,17,0,0,0-4.19-11.11,16.85,16.85,0,0,1,5.17,11.05c.05.52.07,1,.08,1.57v.78a3.49,3.49,0,0,0,.06.65,3.16,3.16,0,0,0,.51,1.19,4.57,4.57,0,0,0,.95,1,33.19,33.19,0,0,1,4.32,4.55,56.68,56.68,0,0,1,6.54,10.59c.91,1.89,1.72,3.75,2.47,5.76a5,5,0,0,1,.22.93c0,.32,0,.54.06.81l.11,1.57c.1,1,.08,2.09.08,3.14-.09,4.17-.77,8.55-3.11,12.27a15.54,15.54,0,0,1-4.54,4.63,17.36,17.36,0,0,1-6,2.34A31.89,31.89,0,0,1,283,415a56.05,56.05,0,0,1-6-1.56A48.77,48.77,0,0,1,271.22,411.23Z"/><path d="M392.05,553c-10.14,6.67-20.57,12.9-31.18,18.8s-21.47,11.38-32.59,16.27q-8.36,3.67-17,6.68a156.5,156.5,0,0,1-17.55,5.08,78.28,78.28,0,0,1-18.2,2.06c-6.14-.23-12.14-1-18.2-1.7s-12-1.86-18-3.18a155.3,155.3,0,0,1-17.55-5.14A141.94,141.94,0,0,1,205,584.56c-5.43-2.76-10.68-5.9-15.87-9-10.39-6.17-21.28-11.55-32-17.21-5.38-2.83-10.74-5.69-16-8.79-2.62-1.56-5.22-3.15-7.73-4.94a39.78,39.78,0,0,1-7-6.07c-4.06-4.58-7.78-9.4-11.37-14.33s-7-10-10.2-15.16c-1.65-2.56-3.12-5.23-4.68-7.85s-3-5.32-4.28-8.08a138.1,138.1,0,0,1-7.19-16.84,86.17,86.17,0,0,1-4.14-17.9c-.65-6-1.36-12-2.07-18.07-1.43-12.05-2.81-24.11-4-36.2s-2.31-24.17-3.06-36.3c-.36-6.06-.65-12.13-.75-18.21a171.13,171.13,0,0,1,.52-18.25,46.58,46.58,0,0,1,1.7-9c.47-1.5,1.11-2.85,1.67-4.26l1.74-4.21c2.31-5.61,4.64-11.22,7.06-16.79s4.91-11.1,7.62-16.53c1.36-2.72,2.78-5.41,4.33-8,.78-1.3,1.59-2.59,2.48-3.81a17.17,17.17,0,0,1,3-3.37,17.06,17.06,0,0,0-3,3.4c-.88,1.24-1.66,2.54-2.42,3.85-1.52,2.62-2.9,5.32-4.22,8.05-2.63,5.47-5,11-7.39,16.63s-4.6,11.22-6.83,16.86l-1.68,4.23c-.53,1.41-1.18,2.83-1.59,4.23a45.3,45.3,0,0,0-1.55,8.85,174.11,174.11,0,0,0-.37,18.14c.15,6.05.48,12.1.9,18.15.83,12.09,2,24.17,3.32,36.22s2.77,24.11,4.21,36.16c.72,6,1.45,12,2.12,18.08a83.8,83.8,0,0,0,4.09,17.5,137,137,0,0,0,7.14,16.59c1.3,2.72,2.84,5.33,4.26,8s3,5.24,4.65,7.77c3.18,5.15,6.61,10.13,10.16,15s7.29,9.66,11.28,14.15a37.31,37.31,0,0,0,6.71,5.79c2.42,1.74,5,3.32,7.58,4.87,5.19,3.09,10.53,5.95,15.89,8.78,10.71,5.68,21.59,11.09,32.07,17.34,5.19,3.14,10.36,6.25,15.74,9a140.74,140.74,0,0,0,16.55,7.27,160.63,160.63,0,0,0,17.35,5.14q8.82,2,17.82,3.29c6,.77,12,1.54,18,1.81a76.82,76.82,0,0,0,17.9-1.89c11.8-2.55,23.24-6.71,34.39-11.42s22.06-10.07,32.74-15.81S381.82,559.54,392.05,553Z"/><path d="M143,599a10.32,10.32,0,0,1,1.85-3,14.53,14.53,0,0,1,2.66-2.41,19.27,19.27,0,0,1,6.56-2.92,15.05,15.05,0,0,1,1.77-.38,15.24,15.24,0,0,1,1.78-.25l1.8-.16a6.41,6.41,0,0,0,1.46-.29,4.21,4.21,0,0,0,2.2-1.7,8.14,8.14,0,0,0,1-2.91,24.11,24.11,0,0,0,.11-6.69,66.45,66.45,0,0,0-1-6.82c-.92-4.54-2.09-9-3.35-13.56a75,75,0,0,1,4.87,13.21,52.27,52.27,0,0,1,1.39,7,24.62,24.62,0,0,1,0,7.27,9.86,9.86,0,0,1-1.37,3.61,6,6,0,0,1-3.26,2.43,8.5,8.5,0,0,1-2,.31l-1.7.08c-.57,0-1.12.1-1.69.16a13.46,13.46,0,0,0-1.67.25,20.44,20.44,0,0,0-6.38,2.22,14.2,14.2,0,0,0-2.78,2A11.34,11.34,0,0,0,143,599Z"/><path d="M402.73,541.09c-9.73,4.25-19.53,8.34-29.33,12.44s-19.67,8-29.57,11.87c-5,1.92-9.92,3.83-15,5.54-2.49.9-5.14,1.66-7.61,2.43s-5,1.69-7.54,2.53a180,180,0,0,1-31,7.79,136,136,0,0,1-32,.86A139,139,0,0,1,234.88,582a126.4,126.4,0,0,1-15.36-4.54A144.61,144.61,0,0,1,191,563.19c-.56-.34-1.14-.77-1.63-1a4,4,0,0,0-.85-.26l-1-.19-3.91-.76-7.81-1.57c-5.2-1.07-10.4-2.19-15.54-3.52,5.19,1.12,10.41,2.06,15.64,3l7.84,1.35,3.93.65,1,.16a4.52,4.52,0,0,1,1.06.29c.71.32,1.21.69,1.8,1A143.37,143.37,0,0,0,220,576.05l3.75,1.25c1.26.4,2.54.73,3.8,1.1,2.53.77,5.11,1.32,7.67,2a137.3,137.3,0,0,0,15.62,2.39,134.24,134.24,0,0,0,31.54-1,176.74,176.74,0,0,0,30.73-7.54c2.52-.82,5-1.68,7.58-2.49s5.06-1.48,7.58-2.37c5-1.69,10-3.52,15-5.34,9.95-3.68,19.85-7.5,29.75-11.35Z"/><path d="M318.88,475.08a4.17,4.17,0,0,1,1.47,1.45,3.73,3.73,0,0,1,.49,2,3.89,3.89,0,0,1-2.11,3.41,4.14,4.14,0,0,1-1,.34,6.18,6.18,0,0,1-1.05.07,11.91,11.91,0,0,1-2.06-.4c-1.35-.37-2.67-.81-4-1.25-5.27-1.81-10.49-3.77-15.76-5.59s-10.59-3.51-16-4.87a74.12,74.12,0,0,0-8.16-1.64,33.64,33.64,0,0,0-4.12-.33,14.06,14.06,0,0,0-4,.41l-.48.13a5.12,5.12,0,0,1-.56.15,4.15,4.15,0,0,1-1.17.1,20.09,20.09,0,0,1-2.13-.42c-1.36-.3-2.72-.55-4.08-.77a69.53,69.53,0,0,0-8.24-.85c-5.52-.22-11,.29-16,2.67-5.21,2.13-10.49,3.94-15.81,5.67q-4,1.29-8,2.47l-1,.3a6.71,6.71,0,0,1-1.27.19,4.49,4.49,0,0,1-2.52-.65,4.64,4.64,0,0,1-1.79-1.86,5,5,0,0,1-.64-2.49,4.58,4.58,0,0,1,.78-2.5,4.75,4.75,0,0,1,.87-1,9.83,9.83,0,0,1,1-.7l3.54-2.24q3.54-2.24,7.13-4.41c4.78-2.9,9.6-5.72,14.56-8.34a82,82,0,0,1,7.65-3.58,25.91,25.91,0,0,1,4.11-1.3,10.12,10.12,0,0,1,1.14-.15,6.24,6.24,0,0,1,1.16,0l2.1.27c2.79.42,5.54,1,8.26,1.67,1.36.35,2.71.72,4.06,1.12l1,.3a4,4,0,0,0,.91.2,3.38,3.38,0,0,0,1.78-.34,46.65,46.65,0,0,1,7.95-2.83,16.69,16.69,0,0,1,4.24-.51,6.29,6.29,0,0,1,2.16.43c.67.29,1.28.61,1.9.94,4.93,2.64,9.75,5.43,14.62,8.16Q304.36,466.78,318.88,475.08Zm0,0q-14.61-8.16-29.26-16.24c-4.9-2.67-9.81-5.31-14.77-7.84-.62-.32-1.25-.63-1.86-.88a5.36,5.36,0,0,0-1.93-.33,15,15,0,0,0-4,.58,45.19,45.19,0,0,0-7.73,2.94,4.41,4.41,0,0,1-2.27.48,4.91,4.91,0,0,1-1.14-.22l-1-.28c-1.34-.36-2.69-.7-4-1-2.7-.61-5.43-1.12-8.17-1.46-.68-.08-1.37-.16-2.05-.22a4.07,4.07,0,0,0-.92,0,8.23,8.23,0,0,0-.94.14A25.76,25.76,0,0,0,235,452c-2.53,1.07-5,2.35-7.44,3.65-4.88,2.62-9.66,5.48-14.39,8.4q-3.56,2.21-7.06,4.46l-3.51,2.27a5.16,5.16,0,0,0-.73.53,2.85,2.85,0,0,0-.52.58,2.67,2.67,0,0,0-.43,1.43,3.06,3.06,0,0,0,1.43,2.64,2.51,2.51,0,0,0,1.47.38,3.72,3.72,0,0,0,.79-.1l1-.29q4-1.14,8-2.38c5.3-1.68,10.59-3.44,15.73-5.49a32.31,32.31,0,0,1,4-1.45c.69-.18,1.39-.38,2.09-.49s1.41-.27,2.12-.33a46.36,46.36,0,0,1,8.49-.19,71.17,71.17,0,0,1,8.37,1.06c1.38.25,2.75.54,4.12.87a18.69,18.69,0,0,0,1.95.44,4,4,0,0,0,.91,0l.45-.12.54-.13a14.79,14.79,0,0,1,4.28-.35,34.71,34.71,0,0,1,4.21.43,77.8,77.8,0,0,1,8.2,1.83c5.4,1.48,10.67,3.33,15.92,5.2s10.46,3.88,15.72,5.73c1.32.46,2.64.91,4,1.28a12,12,0,0,0,2,.42,3.86,3.86,0,0,0,2-.39,3.81,3.81,0,0,0,2.1-3.34,3.67,3.67,0,0,0-.46-2A4.25,4.25,0,0,0,318.88,475.08Z"/></g><g id="Layer_2_copy" data-name="Layer 2 copy"><path d="M441.37,278.07v0c-21.72-3.31-38.19-19-59.31-23.39-17-3.54-34,2-50.67,4.47-7.67,1.13-13.53,1.05-20.52-2.62-6.15-3.22-11.55-7.85-18.22-10.06a3.26,3.26,0,0,1,.55-.62c20-17.84,82.49-13,90.63-12.6S441,273.14,441.37,278.07Z"/><path d="M318.88,475.08a3.88,3.88,0,0,1-1.88,7.24h-.16c-5.18,0-43.24-17.78-54.89-14a4,4,0,0,1-2.19.1c-4.26-1.07-19-4.28-28.81-.1a250.12,250.12,0,0,1-26.11,8.86,3.88,3.88,0,0,1-3.18-7c14.27-9.21,33.49-20.86,38.74-20.36a88.4,88.4,0,0,1,15.83,3.25,3.92,3.92,0,0,0,2.76-.2c3.09-1.45,10.73-4.67,14.29-3.05,4.52,2.05,36.57,20.13,43.15,23.83Z"/><path d="M365.75,288.76s1.64,18.08-16.44,21.37-21-19.92-21-19.92C337.7,286.25,347.63,287.11,365.75,288.76Z"/></g></svg>